<?xml version="1.0" encoding="utf-8"?>
<!-- Generator: Adobe Illustrator 21.0.0, SVG Export Plug-In . SVG Version: 6.00 Build 0)  -->
<svg version="1.1" id="Layer_1" xmlns="http://www.w3.org/2000/svg" xmlns:xlink="http://www.w3.org/1999/xlink" x="0px" y="0px"
	 viewBox="0 0 100.4 100.4" style="enable-background:new 0 0 100.4 100.4;" xml:space="preserve">
<style type="text/css">
	.st0{fill:none;stroke:#FFFFFF;stroke-width:3;stroke-miterlimit:10;}
</style>
<path class="st0" d="M79.7,68.5h-59c-3.7,0-2.8,0.6-3-3V13.4c0-3.5-0.6-3,3-3h59c4,0,3-0.7,3,3v52.2C82.7,69.3,83.5,68.5,79.7,68.5z
	"/>
<line class="st0" x1="19.1" y1="17.7" x2="81.6" y2="17.7"/>
<path class="st0" d="M50.3,9.3L50.3,9.3C50.2,9.3,50.2,9.3,50.3,9.3l-0.1-8.6c0-0.1,0-0.1,0.1-0.1l0,0c0.1,0,0.1,0,0.1,0.1L50.3,9.3
	C50.4,9.3,50.3,9.3,50.3,9.3z"/>
<path class="st0" d="M50.3,71.3L50.3,71.3C50.3,71.3,50.4,71.4,50.3,71.3l0.1,22.8c0,0.1,0,0.1-0.1,0.1l0,0c-0.1,0-0.1,0-0.1-0.1
	L50.3,71.3C50.2,71.4,50.2,71.3,50.3,71.3z"/>
<path class="st0" d="M36.6,69.5L36.6,69.5c-0.1-0.1-0.3,0-0.3,0.1l-16,27.8c-0.1,0.1,0,0.3,0.1,0.3l0,0c0.1,0.1,0.3,0,0.3-0.1
	l16-27.8C36.7,69.8,36.7,69.6,36.6,69.5z"/>
<path class="st0" d="M79.8,97.6L79.8,97.6c0.1-0.1,0.1-0.2,0.1-0.3L62.6,68.7c-0.1-0.1-0.2-0.1-0.3-0.1l0,0
	c-0.1,0.1-0.1,0.2-0.1,0.3l17.3,28.6C79.6,97.6,79.7,97.6,79.8,97.6z"/>
</svg>
