<?xml version="1.0" encoding="utf-8"?>
<!-- Generator: Adobe Illustrator 21.0.0, SVG Export Plug-In . SVG Version: 6.00 Build 0)  -->
<svg version="1.1" id="Layer_1" xmlns="http://www.w3.org/2000/svg" xmlns:xlink="http://www.w3.org/1999/xlink" x="0px" y="0px"
	 viewBox="0 0 100.4 100.4" style="enable-background:new 0 0 100.4 100.4;" xml:space="preserve">
<style type="text/css">
	.st0{fill:none;stroke:#FFFFFF;stroke-width:4;stroke-miterlimit:10;}
	.st1{fill:none;stroke:#FFFFFF;stroke-width:3;stroke-miterlimit:10;}
	.st2{fill:#FFFFFF;stroke:#FFFFFF;stroke-width:0.75;stroke-miterlimit:10;}
</style>
<path class="st0" d="M82.2,72.5H17.3c-6.1,0-11-4.9-11-11v-44c0-6.1,4.9-11,11-11h64.9c6.1,0,11,4.9,11,11v44
	C93.2,67.6,88.2,72.5,82.2,72.5z"/>
<line class="st0" x1="6.3" y1="52.3" x2="94.4" y2="52.3"/>
<circle class="st1" cx="50" cy="62.7" r="4.3"/>
<line class="st1" x1="41.7" y1="74.5" x2="41.7" y2="92.4"/>
<line class="st1" x1="58.3" y1="74.5" x2="58.3" y2="92.4"/>
<path class="st2" d="M20.6,95.1h57.6c0.8,0,1.5-0.7,1.5-1.5l0,0c0-0.8-0.7-1.5-1.5-1.5H20.6c-0.8,0-1.5,0.7-1.5,1.5l0,0
	C19.1,94.5,19.8,95.1,20.6,95.1z"/>
</svg>
