<?xml version="1.0" encoding="utf-8"?>
<!-- Generator: Adobe Illustrator 21.0.0, SVG Export Plug-In . SVG Version: 6.00 Build 0)  -->
<svg version="1.1" id="Layer_1" xmlns="http://www.w3.org/2000/svg" xmlns:xlink="http://www.w3.org/1999/xlink" x="0px" y="0px"
	 viewBox="0 0 100.4 100.4" style="enable-background:new 0 0 100.4 100.4;" xml:space="preserve">
<style type="text/css">
	.st0{fill:none;stroke:#3799CC;stroke-width:3;stroke-miterlimit:10;}
</style>
<path class="st0" d="M15.6,95l32.3-0.2l35.9,0.4c0-18.9-16-34.3-34.6-34.3S15.6,76.1,15.6,95z"/>
<circle class="st0" cx="49" cy="36.5" r="18.7"/>
<path class="st0" d="M76.8,17.8c0,0.8-27.2,12.3-28.6,12.3S20.8,19.2,20.8,18S46.6,5.6,48.2,5.6S76.8,16.9,76.8,17.8z"/>
<path class="st0" d="M80.4,46.2c-0.1,0.2-3,0-3,0s-2.9,0.2-3,0c-0.1-0.1,1.5-3.3,1.5-3.3l1.5-3.3l1.6,3.2
	C78.8,43,80.5,45.9,80.4,46.2z"/>
<path class="st0" d="M77.3,40.4c0,0,0.5-22.6,0-22.6"/>
</svg>
