<?xml version="1.0" encoding="utf-8"?>
<!-- Generator: Adobe Illustrator 21.0.0, SVG Export Plug-In . SVG Version: 6.00 Build 0)  -->
<svg version="1.1" id="Layer_1" xmlns="http://www.w3.org/2000/svg" xmlns:xlink="http://www.w3.org/1999/xlink" x="0px" y="0px"
	 viewBox="0 0 100.4 100.4" style="enable-background:new 0 0 100.4 100.4;" xml:space="preserve">
<path style="fill:#3799CC;" d="M87.3,64.4L68.9,35.2l7.8-12.1c1.7-2.7,2.4-5.9,1.8-8.5c-0.4-1.8-1.3-3.2-2.7-4.1l-0.4-0.3c-3.6-2.3-8.7-0.3-11.8,4.5
	l-7.3,11.4l-40.6-3.8c-0.6-0.1-1.1,0.2-1.4,0.7l-3,4.7c-0.2,0.4-0.3,0.9-0.2,1.3s0.5,0.8,0.9,0.9l34.2,11.9L33.3,62l-20.2,2
	c-0.5,0.1-1,0.4-1.2,0.9l-1.6,3.4c-0.2,0.4-0.2,0.9,0,1.3c0.2,0.4,0.6,0.7,1.1,0.8l23.2,4L48,93.7c0.3,0.4,0.7,0.6,1.2,0.7
	c0,0,0,0,0.1,0c0.4,0,0.9-0.2,1.1-0.5l2.4-2.9c0.3-0.4,0.4-1,0.3-1.5l-6.7-19.1l12.6-19.6L82,71c0.3,0.3,0.8,0.4,1.2,0.4
	c0.4-0.1,0.8-0.3,1.1-0.7l3-4.7C87.6,65.5,87.6,64.9,87.3,64.4z M82.7,67.6l-23-20.3c-0.3-0.3-0.8-0.4-1.2-0.4
	c-0.4,0.1-0.8,0.3-1.1,0.7L43.5,69.4c-0.2,0.4-0.3,0.9-0.2,1.3l6.6,19l-0.6,0.7L36.9,72.1c-0.1-0.2-0.3-0.3-0.4-0.4l-0.2-0.1
	c-0.2-0.1-0.4-0.2-0.6-0.2l-21.8-3.7l0.4-0.8l20-1.9c0.5,0,0.9-0.3,1.1-0.7l14.3-22.4c0.2-0.4,0.3-0.9,0.2-1.3s-0.5-0.8-0.9-0.9
	L14.8,27.7l1.5-2.3l40.6,3.8c0.6,0.1,1.1-0.2,1.4-0.7l7.8-12.2c2.1-3.2,5.6-4.9,7.6-3.6l0.4,0.3c0.9,0.6,1.3,1.5,1.4,2.2
	c0.4,1.8-0.1,4.2-1.4,6.2l-8.3,12.9c-0.3,0.5-0.3,1.1,0,1.6l18.4,29.2L82.7,67.6z"/>
</svg>
